HIERARCHY
ROOT Hips
{
  OFFSET 74.0196 97.4445 -31.1285
  CHANNELS 6 Xposition Yposition Zposition Zrotation Xrotation Yrotation
  JOINT RightUpLeg
  {
    OFFSET -8.9458 -8.66707 0.101652
    CHANNELS 3 Zrotation Xrotation Yrotation
    JOINT RightLeg
    {
      OFFSET -2.94875e-013 -44.4227 1.3727
      CHANNELS 3 Zrotation Xrotation Yrotation
      JOINT RightFoot
      {
        OFFSET 0.253549 -42.0924 -1.46059
        CHANNELS 3 Zrotation Xrotation Yrotation
        JOINT RightToes
        {
          OFFSET 0.04 -4.41509 8.4991
          CHANNELS 3 Zrotation Xrotation Yrotation
          End Site
          {
            OFFSET -0.08 -0.137448 9.77979
          }
        }
      }
    }
  }
  JOINT Spine
  {
    OFFSET -5.68434e-014 11.8905 -6.39488e-014
    CHANNELS 3 Zrotation Xrotation Yrotation
    JOINT Spine1
    {
      OFFSET 5.68434e-014 25.6574 0.127663
      CHANNELS 3 Zrotation Xrotation Yrotation
      JOINT HEad
      {
        OFFSET 4.26326e-014 8.73416 0.011341
        CHANNELS 3 Zrotation Xrotation Yrotation
        End Site
        {
          OFFSET -0.29 12.7742 2.51395
        }
      }
      JOINT LeftShoulder1
      {
        OFFSET 8.99 -0.362252 -0.22
        CHANNELS 3 Zrotation Xrotation Yrotation
        JOINT LeftArm
        {
          OFFSET 10.2827 -0.00338 0.322123
          CHANNELS 3 Zrotation Xrotation Yrotation
          JOINT LeftForeArm
          {
            OFFSET 32.7669 0.099144 -1.42434
            CHANNELS 3 Zrotation Xrotation Yrotation
            JOINT LeftHand
            {
              OFFSET 27.5643 0.085362 1.02216
              CHANNELS 3 Zrotation Xrotation Yrotation
              End Site
              {
                OFFSET 16.7443 -0.6 1.50291
              }
            }
          }
        }
      }
      JOINT RightShoulder
      {
        OFFSET -8.99 -0.362252 -0.22
        CHANNELS 3 Zrotation Xrotation Yrotation
        JOINT RightArm
        {
          OFFSET -10.2827 -0.00338 0.322123
          CHANNELS 3 Zrotation Xrotation Yrotation
          JOINT RightForeArm
          {
            OFFSET -32.8971 0.099144 -1.42434
            CHANNELS 3 Zrotation Xrotation Yrotation
            JOINT RightHand
            {
              OFFSET -27.4921 0.085362 1.02216
              CHANNELS 3 Zrotation Xrotation Yrotation
              End Site
              {
                OFFSET -16.6312 -0.6 1.50291
              }
            }
          }
        }
      }
    }
  }
  JOINT LeftUpLeg
  {
    OFFSET 8.9458 -8.66707 0.101652
    CHANNELS 3 Zrotation Xrotation Yrotation
    JOINT LeftLeg
    {
      OFFSET 7.10543e-014 -44.4227 1.3727
      CHANNELS 3 Zrotation Xrotation Yrotation
      JOINT LeftFoot
      {
        OFFSET -0.253549 -42.0924 -1.46059
        CHANNELS 3 Zrotation Xrotation Yrotation
        JOINT LeftToes
        {
          OFFSET -0.04 -4.41509 8.4991
          CHANNELS 3 Zrotation Xrotation Yrotation
          End Site
          {
            OFFSET 0.08 -0.047448 9.77979
          }
        }
      }
    }
  }
}
MOTION
Frames:	16
Frame Time:	0.0166667
-13.7677 91.6998 -69.922 3.81073 -2.34184 63.7767 -21.3304 -21.7976 -0.316676 2.18265 31.2714 8.64898 12.9323 9.60193 -2.00679 -10.9678 -34.0997 -2.47543 0.552997 6.44367 -4.57551 -1.67728 12.6747 -8.44158 11.0373 -5.51863 -9.86436 -5.03302e-021 -3.88251e-019 1.21329e-020 -81.5765 -0.041082 -58.2361 -14.6335 43.1733 -110.674 6.54677 9.62745 -1.04006 24.8485 -4.67332 -19.7235 83.4904 -43.2327 66.6422 164.812 -21.1448 22.6686 58.8208 39.7054 48.365 26.7984 -5.70966 -10.8405 -22.6584 35.1294 24.7339 -3.80063 21.426 0.81688 29.8043 -41.051 21.6909 
-13.9926 90.6244 -71.2181 4.58411 -2.97792 63.9603 -21.5486 -21.275 0.316398 2.29084 31.9217 8.25321 12.0118 10.9758 -2.0015 -12.5499 -38.8147 -2.83089 0.710469 6.76296 -4.88881 -1.96307 13.2601 -8.96105 11.567 -5.4282 -9.18408 -5.03302e-021 -3.88251e-019 1.21329e-020 -79.5507 1.36035 -62.3543 -14.0561 41.4423 -107.988 6.54677 9.62745 -1.04006 25.25 -4.90965 -20.3328 83.043 -43.5099 65.8913 165.287 -20.4982 21.0135 62.7717 40.1481 45.5813 26.9814 -4.18541 -11.0063 -21.3029 34.2134 21.8173 -4.63594 23.8075 1.11096 37.806 -46.5138 28.0786 
-14.2398 89.6672 -72.6202 5.26687 -3.50387 64.1427 -21.9825 -20.818 1.08294 2.54422 31.943 7.66816 10.8845 11.6062 -1.87277 -13.532 -40.3634 -3.69873 0.797494 7.08426 -5.14068 -2.21497 13.8701 -9.38887 12.1229 -5.58385 -8.54735 -5.03302e-021 -3.88251e-019 1.21329e-020 -76.6047 3.11386 -66.7105 -13.2617 39.1625 -104.436 6.54677 9.62745 -1.04006 25.4809 -5.01348 -20.5601 82.5846 -43.7101 65.1855 165.027 -17.924 19.6969 64.1092 40.6691 45.2697 26.9151 -2.8855 -10.7188 -20.212 33.5625 19.4291 -5.10948 25.4911 1.30658 46.2343 -51.2016 34.5469 
-14.5168 88.9558 -74.107 5.76779 -3.84464 64.3026 -22.6153 -20.4943 1.85219 2.8778 31.3873 7.05353 9.89411 11.5232 -1.69922 -13.5875 -38.7464 -4.60808 0.767353 7.36414 -5.34899 -2.39823 14.4228 -9.76286 12.6302 -5.93081 -7.92218 -5.03302e-021 -3.88251e-019 1.21329e-020 -72.8455 4.90725 -70.9873 -12.3891 36.6426 -100.123 6.54677 9.62745 -1.04006 25.6061 -5.01569 -20.4889 82.2437 -43.7562 64.5137 164.309 -14.27 18.78 63.2377 41.2989 47.0035 26.6107 -1.98168 -10.1452 -19.5417 33.0899 17.9462 -5.01062 26.2255 1.30613 53.2454 -54.4645 39.7937 
-14.8281 88.574 -75.6196 6.0179 -3.96716 64.4615 -23.3797 -20.3113 2.51858 3.20488 30.3233 6.46397 9.35903 10.8541 -1.55954 -12.5214 -34.3594 -5.11133 0.643859 7.56394 -5.53505 -2.47899 14.8408 -10.136 12.9998 -6.37516 -7.30085 -5.03302e-021 -3.88251e-019 1.21329e-020 -65.5761 7.38652 -75.7684 -11.1054 31.2335 -95.6305 6.54677 9.62745 -1.04006 25.6863 -4.95844 -20.2348 82.1382 -43.6223 63.8713 163.349 -10.4655 18.2213 60.5701 41.8485 50.2797 26.1135 -1.5645 -9.44739 -19.2477 32.6644 17.2393 -4.51416 26.0434 1.1532 57.54 -56.4179 42.7697 
-15.1765 88.5604 -77.0804 5.98742 -3.86487 64.6726 -24.1955 -20.2237 3.03229 3.47645 28.8315 5.79509 9.40044 9.76092 -1.48428 -10.503 -27.8562 -5.12856 0.457291 7.65168 -5.72032 -2.4425 15.0593 -10.5461 13.1408 -6.8122 -6.70869 -5.03302e-021 -3.88251e-019 1.21329e-020 -58.0573 9.22596 -79.8858 -10.1564 26.2504 -91.0309 6.54677 9.62745 -1.04006 25.7696 -4.8841 -19.9192 82.2896 -43.3273 63.1934 162.331 -7.29161 17.9347 56.6112 42.048 54.4569 25.478 -1.63527 -8.73258 -19.1377 32.1469 16.8218 -4.05167 25.1199 0.989773 58.6587 -57.3925 43.0288 
-15.5618 88.9072 -78.4072 5.68598 -3.54935 64.9832 -24.9873 -20.194 3.40152 3.70973 27.0808 4.872 9.91212 8.36661 -1.45152 -7.9541 -20.1152 -4.86509 0.225217 7.60797 -5.91077 -2.30073 15.038 -10.9916 12.9805 -7.16137 -6.2007 -5.03302e-021 -3.88251e-019 1.21329e-020 -51.6942 10.5502 -82.6098 -9.61632 22.7592 -87.0667 6.54677 9.62745 -1.04006 25.8844 -4.82694 -19.6473 82.5498 -42.9 62.3096 161.424 -5.28672 17.8717 52.1457 41.7172 58.6391 24.7568 -2.12061 -8.04389 -18.9845 31.4413 16.1233 -4.03597 23.6181 0.94092 56.7325 -57.5429 40.6598 
-15.9771 89.5549 -79.5129 5.14333 -3.05857 65.3866 -25.6605 -20.2986 3.67126 3.97723 25.4697 3.60277 10.6371 6.70977 -1.41128 -5.34468 -12.2518 -4.5528 0.0102325 7.43903 -6.07414 -2.08222 14.778 -11.4273 12.4891 -7.39792 -5.84567 -5.03302e-021 -3.88251e-019 1.21329e-020 -47.0318 11.8177 -83.6293 -9.43621 20.9358 -84.4197 6.54677 9.62745 -1.04006 26.0359 -4.80824 -19.4913 82.6466 -42.3615 60.9892 160.781 -4.77508 18.0443 48.1858 40.9371 61.8277 24.0167 -2.89295 -7.37905 -18.6211 30.5273 14.7609 -4.6692 21.5777 1.04204 52.21 -56.7319 36.1416 
-16.4174 90.4583 -80.4213 4.41762 -2.43758 65.8798 -26.1869 -20.5096 3.88292 4.35773 24.1728 2.03141 11.3423 5.02476 -1.34535 -3.07886 -5.45277 -4.29522 -0.158411 7.17526 -6.2036 -1.83505 14.3251 -11.7839 11.6981 -7.5655 -5.70306 -5.03302e-021 -3.88251e-019 1.21329e-020 -44.3095 13.3308 -82.8767 -9.56128 20.7216 -83.4164 6.54677 9.62745 -1.04006 26.2101 -4.83532 -19.4839 82.3125 -41.7197 59.0444 160.532 -5.91086 18.505 45.6509 40.041 63.282 23.2526 -3.80097 -6.70314 -17.9581 29.3578 12.6722 -5.78894 19.0394 1.21381 45.8877 -54.6571 30.3692 
-16.8746 91.5325 -81.1693 3.57821 -1.7635 66.4151 -26.5153 -20.9071 4.06 4.92805 23.536 0.344636 11.7692 3.53968 -1.25088 -1.44669 -0.650795 -4.0588 -0.197843 6.87034 -6.27104 -1.598 13.7685 -11.9952 10.7005 -7.7616 -5.80251 -5.03302e-021 -3.88251e-019 1.21329e-020 -43.4942 15.1198 -80.4473 -9.92085 21.8837 -83.9696 6.54677 9.62745 -1.04006 26.3842 -4.90475 -19.6242 81.3861 -40.9489 56.4064 160.768 -8.64638 19.3318 45.0791 39.3782 62.724 22.4739 -4.68461 -6.01138 -17.0056 27.9443 10.1451 -7.0853 16.0913 1.35092 38.9204 -51.1677 24.5537 
-17.34 92.6814 -81.8211 2.70793 -1.12962 66.9333 -26.6024 -21.5552 4.21083 5.74208 23.8286 -1.27966 11.6951 2.53616 -1.14815 -0.591395 1.7074 -3.75486 -0.0108821 6.58996 -6.25323 -1.38797 13.2247 -12.0204 9.62617 -8.10087 -6.13373 -5.03302e-021 -3.88251e-019 1.21329e-020 -44.3405 16.9914 -76.5369 -10.4297 24.0672 -85.6896 6.54677 9.62745 -1.04006 26.537 -5.00681 -19.8882 79.8479 -39.9682 53.1471 161.517 -12.6565 20.6251 46.5216 39.0583 60.2862 21.6923 -5.40298 -5.35074 -15.8616 26.3395 7.69917 -8.23574 13.0067 1.38689 32.4486 -46.5755 19.7317 
-17.806 93.8004 -82.4306 1.9053 -0.605543 67.3764 -26.4434 -22.466 4.34568 6.82162 25.1736 -2.82321 10.9978 2.27763 -1.06258 -0.499444 1.65246 -3.32977 0.417498 6.38709 -6.14109 -1.22184 12.7986 -11.8529 8.60219 -8.67072 -6.64723 -5.03302e-021 -3.88251e-019 1.21329e-020 -46.4556 18.6664 -71.425 -10.9938 26.8282 -88.0795 6.54677 9.62745 -1.04006 26.6542 -5.12878 -20.2393 77.8174 -38.6561 49.4706 162.728 -17.3145 22.4792 49.5132 38.8994 56.4466 20.9196 -5.87366 -4.81122 -14.7067 24.7007 5.89103 -9.0211 10.1965 1.32556 27.2027 -41.6787 16.3462 
-18.2667 94.7827 -83.014 1.27083 -0.207968 67.6924 -26.0846 -23.5773 4.48625 8.14534 27.4902 -4.44692 9.71905 2.94411 -1.00282 -1.03762 -0.480809 -2.78676 0.966438 6.28432 -5.94517 -1.11891 12.5524 -11.5118 7.72343 -9.4943 -7.26339 -5.03302e-021 -3.88251e-019 1.21329e-020 -49.3906 19.9131 -65.4575 -11.5193 29.6977 -90.7085 6.54677 9.62745 -1.04006 26.7278 -5.25657 -20.634 75.5258 -36.9109 45.685 164.238 -21.7917 24.908 53.106 38.6266 52.0537 20.1715 -6.10434 -4.48757 -13.7706 23.3438 5.12585 -9.34052 8.05506 1.21492 23.4923 -37.4581 14.3314 
-18.7158 95.5314 -83.5528 0.870095 0.0767073 67.8255 -25.5749 -24.766 4.65517 9.62974 30.4895 -6.34237 8.06235 4.57742 -0.952378 -2.01633 -4.23352 -2.14548 1.4793 6.28042 -5.68435 -1.08948 12.4942 -11.0286 7.04974 -10.511 -7.88752 -5.03302e-021 -3.88251e-019 1.21329e-020 -52.7576 20.5985 -58.9977 -11.935 32.2951 -93.2957 6.54677 9.62745 -1.04006 26.7555 -5.37644 -21.028 73.2512 -34.7259 42.144 165.738 -25.2752 27.7551 56.098 38.1494 48.242 19.4945 -6.1741 -4.43605 -13.2631 22.672 5.53171 -9.18563 6.86134 1.1058 21.412 -34.7296 13.4512 
-19.145 95.9394 -83.9979 0.72018 0.284685 67.7167 -24.9495 -25.9748 4.83775 11.1316 33.9394 -8.54343 6.32124 6.92751 -0.87949 -3.23746 -9.10251 -1.42432 1.8156 6.35464 -5.37072 -1.14389 12.5799 -10.4379 6.62483 -11.5809 -8.42794 -5.03302e-021 -3.88251e-019 1.21329e-020 -56.1006 20.8104 -52.4953 -12.176 34.1919 -95.7276 6.54677 9.62745 -1.04006 26.7415 -5.47671 -21.3804 71.2197 -32.2221 39.1563 166.77 -27.1871 30.6733 57.4012 37.6346 46.135 18.9512 -6.18325 -4.64528 -13.3062 23.036 6.8986 -8.65557 6.73928 1.03006 21.0135 -33.9996 13.5355 
-19.5457 95.9864 -84.4269 0.777509 0.417218 67.3521 -24.2514 -27.005 4.97916 12.3935 37.2695 -10.8296 4.83666 9.72369 -0.789538 -4.53398 -14.5464 -0.69024 2.01722 6.4613 -5.04234 -1.27965 12.7319 -9.77264 6.49311 -12.5151 -8.81471 -5.03302e-021 -3.88251e-019 1.21329e-020 -58.7006 21.1555 -46.6112 -12.1072 34.5776 -98.06 6.54677 9.62745 -1.04006 26.6946 -5.5472 -21.652 69.5309 -29.6086 36.9096 166.836 -27.2713 33.2396 56.2582 37.277 46.5578 18.5496 -6.08244 -5.04594 -13.8457 24.252 8.70368 -7.89601 7.82048 1.00192 22.3589 -35.4353 14.5466 
